<?xml version="1.0" encoding="UTF-8"?>
<svg version="1.1" viewBox="0 0 120 120" xml:space="preserve" xmlns="http://www.w3.org/2000/svg">
    <g transform="translate(1.4805 -2.0586)" stroke="#fff">
        <g stroke-width=".5">
            <path d="m110.7 62.059a52.176 46.041 0 0 1-52.176 46.041 52.176 46.041 0 0 1-52.176-46.041 52.176 46.041 0 0 1 52.176-46.041 52.176 46.041 0 0 1 52.176 46.041z" color="#000000" fill-opacity="0"/>
            <path d="m58.52 14.018c-29.77 0-54.176 21.389-54.176 48.041s24.406 48.041 54.176 48.041 54.176-21.389 54.176-48.041-24.406-48.041-54.176-48.041zm0 4c27.862 0 50.176 19.838 50.176 44.041 0 24.203-22.314 44.041-50.176 44.041-27.862 0-50.176-19.838-50.176-44.041 0-24.203 22.314-44.041 50.176-44.041z" color="#000000"/>
        </g>
        <g stroke-width="1.5">
            <circle cx="19.332" cy="62.277" r="8.5815" fill="#2e78b9"/>
            <circle cx="54.508" cy="30.676" r="8.5815" fill="#82503a"/>
            <circle cx="93.044" cy="48.279" r="8.5815" fill="#d95183"/>
            <circle cx="93.042" cy="76.313" r="8.5815" fill="#5fae86"/>
            <circle cx="54.343" cy="93.672" r="8.5815" fill="#bbd15d"/>
        </g>
        <g fill="#aaa" stroke-width=".5">
            <path d="m31.186 63.18-0.54688 2.9492 49.553 9.2031 0.54688-2.9492z"/>
            <path d="m55.771 43.398-3 0.03711 0.47266 37.992 3-0.03711z"/>
            <path d="m80.18 49.023-48.846 9.4395 0.57031 2.9453 48.846-9.4395z"/>
            <path d="m63.207 38.676-2.2949 1.9336 22.652 26.898 2.2949-1.9316z"/>
            <path d="m83.812 56.83-22.652 26.193 2.2695 1.9609 22.652-26.191z"/>
        </g>
        <g fill="#aaa" stroke-width=".5">
            <path d="m43.717 34.984s-10.235 4.8548-17.797 15.344l2.4336 1.7539c7.0681-9.8042 16.652-14.389 16.652-14.389z"/>
            <path d="m66.357 31.326-0.57422 2.9453c9.2376 1.8025 16.336 7.4824 16.336 7.4824l1.8828-2.3359s-7.5329-6.1188-17.645-8.0918z"/>
            <path d="m96.229 59.799-2.7402 1.2188c0.36516 0.82162 0.38687 1.4232 0.34961 1.8145-0.03726 0.39123-0.08594 0.44336-0.08594 0.44336l2.6836 1.3418s0.30795-0.65436 0.38867-1.502c0.08072-0.84759-0.017-2.0143-0.5957-3.3164z"/>
            <path d="m81.271 82.256c-5.6785 5.8969-14.98 7.584-14.98 7.584l0.50391 2.957s10.047-1.6156 16.639-8.4609z"/>
            <path d="m27.404 71.322-2.4238 1.7676s6.515 8.9485 17.408 15.727l1.5859-2.5469c-10.344-6.4361-16.57-14.947-16.57-14.947z"/>
        </g>
    </g>
</svg>
